<?xml version="1.0" encoding="utf-8"?>
<!-- Generator: Adobe Illustrator 19.1.0, SVG Export Plug-In . SVG Version: 6.00 Build 0)  -->
<svg version="1.1" xmlns="http://www.w3.org/2000/svg" xmlns:xlink="http://www.w3.org/1999/xlink" x="0px" y="0px" width="522.5px"
	 height="446.1px" viewBox="0 0 522.5 446.1" style="enable-background:new 0 0 522.5 446.1;" xml:space="preserve">
<style type="text/css">
	.st0{display:none;}
	.st1{display:inline;}
	.st2{fill:none;stroke:#3A3E44;stroke-width:50;}
	.st3{fill:#BCC1C1;}
	.st4{display:inline;fill:#8C8C8C;}
	.st5{fill:none;stroke:#4C2A1E;stroke-width:50;}
	.st6{fill:#BA653F;}
	.st7{fill:none;stroke:#4C5360;stroke-width:50;}
	.st8{fill:#E4EDEF;}
	.st9{display:inline;fill:#B4C0C1;}
	.st10{display:inline;fill:#8E4325;}
	.st11{display:inline;fill:#E89054;}
	.st12{fill:#126664;}
	.st13{fill:#098E91;}
	.st14{opacity:0.27;clip-path:url(#SVGID_2_);fill:#1A2120;}
	.st15{fill:#3A3E44;}
	.st16{fill:#8C8C8C;}
	.st17{fill:#4C2A1E;}
	.st18{fill:#4C5360;}
	.st19{fill:#B4C0C1;}
	.st20{fill:#8E4325;}
	.st21{fill:#E89054;}
</style>
<g id="Layer_3" class="st0">
	<g class="st1">
		<path class="st2" d="M446.7,217.7c0,0-242.8-147.1-250.7-146.6C188.1,71.7-9.7,186.4-9.7,186.4s52.3,24.5,88.9,17
			S245.4,118,245.4,118l-117.8,94.9c0,0,50.8,2.8,80.8-6.9s78.7-43.7,78.7-43.7l-44.5,46.9c0,0,33.8,8.9,84.3-20.9L432.1,226
			L446.7,217.7z"/>
	</g>
	<g class="st1">
		<path class="st3" d="M446.7,217.7c0,0-242.8-147.1-250.7-146.6C188.1,71.7-9.7,186.4-9.7,186.4s52.3,24.5,88.9,17
			S245.4,118,245.4,118l-117.8,94.9c0,0,50.8,2.8,80.8-6.9s78.7-43.7,78.7-43.7l-44.5,46.9c0,0,33.8,8.9,84.3-20.9L432.1,226
			L446.7,217.7z"/>
	</g>
</g>
<g id="Layer_6" class="st0">
	<path class="st4" d="M243.1,112.4c0,0-182.8,88.3-224.7,76.2c0,0,41.9,14.9,67,8.1C126.8,185.2,243.1,112.4,243.1,112.4z"/>
	<path class="st4" d="M287.1,154.8c0,0-80,47.4-137.1,53.5c0,0,34.8,1.2,51.6-3.3C239.5,194.9,287.1,154.8,287.1,154.8z"/>
	<path class="st4" d="M332.8,180.6c0,0-39.3,27.5-77,25.9c0,0,7.2-1.7,24-5.9C305,194.5,324.7,183.3,332.8,180.6z"/>
</g>
<g id="Layer_7" class="st0">
</g>
<g id="Layer_1" class="st0">
	<g class="st1">
		<g>
			<path class="st5" d="M612.9,136.9c0,0-44.3,111.7-149.4,223.8c-89.2,95.1-213.7,163.5-213.7,163.5c-25.8,14.8-55.7,23.3-78,2.5
				l0,0c-22.2-20.8-23.3-55.7-2.5-78c0,0,124-67.8,213.7-163.5c85.1-90.8,149.4-223.8,149.4-223.8c20.7-22.1,55.7-23.3,78-2.5l0,0
				C632.6,79.8,616,133.3,612.9,136.9z"/>
		</g>
	</g>
	<g class="st1">
		<g>
			<path class="st6" d="M612.9,136.9c0,0-44.3,111.7-149.4,223.8c-89.2,95.1-213.7,163.5-213.7,163.5c-25.8,14.8-55.7,23.3-78,2.5
				l0,0c-22.2-20.8-23.3-55.7-2.5-78c0,0,124-67.8,213.7-163.5c85.1-90.8,149.4-223.8,149.4-223.8c20.7-22.1,55.7-23.3,78-2.5l0,0
				C632.6,79.8,616,133.3,612.9,136.9z"/>
		</g>
	</g>
</g>
<g id="Layer_2" class="st0">
	<g class="st1">
		<path class="st7" d="M446.7,240c0,0-369.1-18.5-377.8-12.9c-8.7,5.5-164.3,259.1-164.3,259.1s75.1-4.2,112.4-35.4
			s137.5-200.6,137.5-200.6L78.2,431.6c0,0,59.9-28.2,88.3-57.9c28.3-29.7,63.1-98.7,63.1-98.7l-22,81.2c0,0,44.2-10.7,83.6-76.1
			l134.7-17.4L446.7,240z"/>
	</g>
	<g class="st1">
		<path class="st8" d="M446.7,240c0,0-369.1-18.5-377.8-12.9c-8.7,5.5-164.3,259.1-164.3,259.1s75.1-4.2,112.4-35.4
			s137.5-200.6,137.5-200.6L78.2,431.6c0,0,59.9-28.2,88.3-57.9c28.3-29.7,63.1-98.7,63.1-98.7l-22,81.2c0,0,44.2-10.7,83.6-76.1
			l134.7-17.4L446.7,240z"/>
	</g>
</g>
<g id="Layer_5" class="st0">
	<path class="st9" d="M149.6,242.2c0,0-165.1,221.3-223.3,232.9c0,0,59.9-8.3,85.8-32.3C55.1,403.1,149.6,242.2,149.6,242.2z"/>
	<path class="st9" d="M219.4,270.5c0,0-66.8,107.4-131.9,150.5c0,0,42.7-20.4,60.2-36.3C187.2,348.7,219.4,270.5,219.4,270.5z"/>
	<path class="st9" d="M290.3,272.1c0,0-30.2,57.9-76.7,79.6c0,0,7.6-6.6,25.3-22.2C265.5,306.2,282.3,280.4,290.3,272.1z"/>
</g>
<g id="Layer_4" class="st0">
	<path class="st10" d="M165.8,513.1c-7.3-9.2-1.2-39.7,15.7-27c37,28,74.5,9.7,133-30.7c89.7-62,172-137,180.7-149
		c8.7-12,11.7,15.3-111.8,117C300,492,205.5,562.9,165.8,513.1z"/>
	<circle class="st11" cx="547.8" cy="71.2" r="11.7"/>
	<path class="st11" d="M474,201.1L474,201.1c4.8,3.1,10.1,0.8,14.3-3.1c8.1-7.5,20.3-25.8,30.9-43.3c13.2-21.9,23.8-42.2,25.4-47.4
		c1.6-5.5,1.7-11.2-3.1-14.3v0c-4.8-3.1-11.6-1.9-14.3,3.1c-4.4,8.2-18.3,33.8-24.8,44.6c-10.5,17.3-17.3,28.6-31.4,46
		C467.3,191.2,469.2,198,474,201.1z"/>
</g>
<g id="Layer_9">
	<g>
		<g>
			<path class="st12" d="M299.4,445.8c-59.5,0-115.5-23.2-157.5-65.3c-42.1-42.1-65.3-98-65.3-157.5s23.2-115.5,65.3-157.5
				s98-65.3,157.5-65.3c59.5,0,115.5,23.2,157.5,65.3s65.3,98,65.3,157.5S499,338.5,457,380.6C414.9,422.6,358.9,445.8,299.4,445.8z
				 M299.4,50.2c-95.3,0-172.8,77.5-172.8,172.8s77.5,172.8,172.8,172.8c95.3,0,172.8-77.5,172.8-172.8S394.7,50.2,299.4,50.2z"/>
		</g>
		<g>
			<circle class="st13" cx="299.4" cy="223" r="197.8"/>
		</g>
	</g>
</g>
<g id="Layer_14">
</g>
<g id="Layer_11">
	<defs>
		<circle id="SVGID_1_" cx="299.4" cy="223" r="223"/>
	</defs>
	<clipPath id="SVGID_2_">
		<use xlink:href="#SVGID_1_"  style="overflow:visible;"/>
	</clipPath>
	<path class="st14" d="M546.3,130.1c0,0-37.7,77.1-118.8,151.2c-68.8,62.9-161.3,104.7-161.3,104.7c-19.2,9.1-41,13.6-55.7-2.5l0,0
		c-14.7-16.1-13.6-41,2.5-55.7c0,0,92.1-41.5,161.3-104.7c65.6-60,118.8-151.2,118.8-151.2c16-14.6,41-13.6,55.7,2.5l0,0
		C563.5,90.5,548.7,127.7,546.3,130.1z"/>
</g>
<g id="Layer_12">
</g>
<g id="Layer_8">
	<g>
		<g id="Layer_3_1_">
			<g>
				<g>
					<path class="st15" d="M378.9,189.9L309.6,165c-34.3,17.9-58.3,12.4-61.1,11.7l-11.3-3c-0.6,0.2-1.3,0.4-1.9,0.6
						c-22,7.1-55.4,5.5-59.1,5.3l-42.8-2.3l3.6-2.9c-10.2,0.2-21.8-1.6-34.7-5.3c-12.7-3.7-22.2-8.2-22.6-8.3l-28.4-13.3l27.2-15.8
						c0.3-0.2,32.9-19.1,65.8-37.8C214,54.1,216,54,220.9,53.6c5.4-0.4,9.5,1.7,17.5,6c4.7,2.5,11.4,6.3,19.8,11.1
						c14,8,33,19.2,56.7,33.3c40.2,23.9,80.2,48.2,80.6,48.4l24,14.6L378.9,189.9z M128,141.1c5.1,0.6,10,0.7,14-0.1
						c13-2.7,57.4-26.8,91.3-46.6c-4.6-2.6-8.4-4.7-11.2-6.2C207.7,95.6,168.9,117.5,128,141.1z M263.7,111.9l1.2,1.7l-33.5,27
						c14-6.2,33-18.5,40.6-23.8C269.2,115.1,266.4,113.5,263.7,111.9z M273.9,117.9l17,19.7c2.7-1.3,5.6-2.8,8.6-4.6
						C290.5,127.7,281.9,122.6,273.9,117.9z"/>
				</g>
			</g>
			<g>
				<g>
					<path class="st3" d="M387,166.4c0,0-159.7-96.8-164.9-96.4S86.8,145.9,86.8,145.9s34.4,16.1,58.5,11.2s109.3-56.2,109.3-56.2
						l-77.5,62.4c0,0,33.4,1.8,53.1-4.6c19.7-6.4,51.7-28.8,51.7-28.8l-29.3,30.8c0,0,22.2,5.9,55.4-13.8l69.2,24.9L387,166.4z"/>
				</g>
			</g>
		</g>
		<path class="st16" d="M253.1,97.1c0,0-120.2,58.1-147.8,50.1c0,0,27.5,9.8,44,5.3C176.6,145.1,253.1,97.1,253.1,97.1z"/>
		<path class="st16" d="M282,125.1c0,0-52.6,31.2-90.2,35.2c0,0,22.9,0.8,33.9-2.1C250.7,151.4,282,125.1,282,125.1z"/>
		<path class="st16" d="M312.1,142c0,0-25.9,18.1-50.7,17c0,0,4.7-1.1,15.8-3.9C293.8,151.1,306.8,143.8,312.1,142z"/>
		<g id="Layer_1_1_">
			<g>
				<g>
					<path class="st17" d="M227.1,394.3c-12.2,0-23.1-4.2-31.9-12.4l-0.2-0.2c-21.2-19.9-22.3-53.3-2.4-74.5l1.8-1.9l2.3-1.3
						c0.8-0.4,80-44.2,136.5-104.4c53.5-57.1,95-142.3,95.5-143.1l1.1-2.3l1.7-1.8c9.6-10.2,22.6-16.1,36.7-16.6
						c14.1-0.5,27.4,4.5,37.7,14.1l0.1,0.1c10,9.4,14.2,24.5,12.2,43.6c0,0.2-1.9,17-6.9,26.6c-3.8,9.3-34.1,79.9-101.2,151.5
						c-59.2,63.1-139.6,107.9-144.5,110.6c-11.7,6.7-22.8,10.6-32.9,11.6C230.8,394.2,228.9,394.3,227.1,394.3z M217.4,357.6
						L217.4,357.6c2.4,2.2,9.5,8.9,31.9-3.9l0.2-0.1c0.8-0.4,80.4-44.5,136.5-104.4c66.2-70.6,94.7-141.3,95-142l1-2.6l0.3-0.4
						c1-2.8,2.7-9.3,3.2-16.2c0.6-8.9-1.1-13-2.1-14l0,0c-3.8-3.6-8.9-5.5-14.2-5.3c-4.6,0.2-8.9,1.8-12.3,4.8
						c-7.7,15.5-47.6,93-99.8,148.6c-54.7,58.4-126.9,100.7-142,109.2C209.2,339.3,210,350.7,217.4,357.6z"/>
				</g>
			</g>
			<g>
				<g>
					<path class="st6" d="M496.3,113.3c0,0-29.1,73.5-98.3,147.2C339.4,323.1,257.5,368,257.5,368c-17,9.7-36.7,15.4-51.3,1.7l0,0
						c-14.6-13.7-15.4-36.7-1.7-51.3c0,0,81.6-44.6,140.6-107.5c56-59.7,98.3-147.2,98.3-147.2c13.6-14.5,36.7-15.4,51.3-1.7l0,0
						C509.3,75.7,498.4,110.9,496.3,113.3z"/>
				</g>
			</g>
		</g>
		<g id="Layer_2_1_">
			<g>
				<g>
					<path class="st18" d="M0,361.1l16.4-26.8c0.3-0.4,25.9-42.2,52-84c54.6-87.5,57-89,61.3-91.8c4.6-2.9,9.2-3.2,21.1-3.2
						c7,0,16.9,0.1,29.4,0.5c20.9,0.6,49.7,1.6,85.4,3.1c60.8,2.6,121.6,5.6,122.2,5.6l34.9,1.7l-41.4,45.2l-86.9,11.2
						c-11,16.6-23.7,29.9-37.7,39.4c-12.4,8.4-21.5,10.9-23.2,11.3l-16.3,3.9c-0.9,1-1.8,2-2.7,2.9c-20.5,21.5-61.2,40.8-62.9,41.6
						l-38.8,18.3l4.1-9.7c-0.8,0.8-1.5,1.3-2,1.8c-12.3,10.3-30.2,17.9-53.3,22.8c-16.4,3.5-29.7,4.3-30.2,4.3L0,361.1z
						 M147.1,188.3c-12.4,17.8-51.5,80.5-83.7,132.6c11.4-3,22.9-7.5,30.5-13.8c15.1-12.7,55.6-75.7,81.3-118.4
						C162.6,188.3,152.9,188.2,147.1,188.3z M200.7,189.4l9.3,4.7l-31,73.7c4.5-3.3,8.6-6.8,11.8-10.1c13.9-14.5,32.6-48.9,38.7-61
						l30.6,11.7l-2.4,8.8c4.2-5,8.6-11,12.9-18.2l4-6.7C248,191.2,222.3,190.2,200.7,189.4z"/>
				</g>
			</g>
			<g>
				<g>
					<path class="st8" d="M387,181.1c0,0-242.8-12.1-248.5-8.5S30.4,343,30.4,343s49.4-2.8,73.9-23.3s90.4-132,90.4-132l-50.2,119.4
						c0,0,39.4-18.6,58-38.1s41.5-64.9,41.5-64.9l-14.5,53.4c0,0,29.1-7,55-50l88.6-11.5L387,181.1z"/>
				</g>
			</g>
		</g>
		<path class="st19" d="M191.6,182.5c0,0-108.6,145.5-146.9,153.2c0,0,39.4-5.4,56.5-21.2C129.4,288.3,191.6,182.5,191.6,182.5z"/>
		<path class="st19" d="M237.5,201.2c0,0-43.9,70.6-86.8,99c0,0,28.1-13.4,39.6-23.9C216.3,252.6,237.5,201.2,237.5,201.2z"/>
		<path class="st19" d="M284.2,202.2c0,0-19.9,38.1-50.4,52.4c0,0,5-4.3,16.7-14.6C267.8,224.6,278.9,207.7,284.2,202.2z"/>
		<path class="st20" d="M202.3,360.7c-4.8-6.1-0.8-26.1,10.3-17.7c24.3,18.4,49,6.4,87.5-20.2c59-40.8,113.1-90.1,118.8-98
			c5.7-7.9,7.7,10.1-73.6,77C290.5,346.8,228.3,393.4,202.3,360.7z"/>
		<circle class="st21" cx="453.5" cy="70" r="7.7"/>
		<path class="st21" d="M405,155.5L405,155.5c3.1,2,6.7,0.5,9.4-2c5.3-4.9,13.4-17,20.3-28.5c8.7-14.4,15.7-27.7,16.7-31.2
			c1-3.6,1.1-7.4-2-9.4l0,0c-3.1-2-7.6-1.3-9.4,2c-2.9,5.4-12,22.2-16.3,29.3c-6.9,11.4-11.4,18.8-20.7,30.3
			C400.6,149,401.8,153.4,405,155.5z"/>
	</g>
</g>
<g id="Layer_13">
	<text transform="matrix(1 0 0 1 1089.2811 844.0659)" style="font-family:'PrestigeEliteStd-Bd'; font-size:99.5362px;">weiner machine</text>
</g>
</svg>
